# xmcd
#
# Track frame offsets:
#        150
#        5000
#        34570
#        57935
#        80025
#        82222
#        98290
#        127217
#        140215
#        165237
#        188142
#        204980
#        226487
#        230552
#
# Disc length: 3475 seconds
#
# Revision: 5
# Processed by: cddbd v1.5.1PL0 Copyright (c) Steve Scherf et al.
# Submitted via: ExactAudioCopy v0.95b2
#
DISCID=b90d910e
DTITLE=Quincy Jones - Back On The Block
DYEAR=1989
DGENRE=R&B
TTITLE0=Prologue (2 Q's Rap)
TTITLE1=Back On The Block
TTITLE2=I Don't Go For That
TTITLE3=I'll Be Good To You
TTITLE4=The Verb To Be
TTITLE5=Wee B. Dooinit
TTITLE6=The Places You Find Love
TTITLE7=Jazz Corner Of The Word
TTITLE8=Birdland
TTITLE9=Setembro (Brazilian Wedding Song)
TTITLE10=One Man Woman
TTITLE11=Tomorrow
TTITLE12=Prelude To The Garden
TTITLE13=The Secret Garden
EXTD=
EXTT0=
EXTT1=
EXTT2=
EXTT3=
EXTT4=
EXTT5=
EXTT6=
EXTT7=
EXTT8=
EXTT9=
EXTT10=
EXTT11=
EXTT12=
EXTT13=
PLAYORDER=
